<?xml version="1.0" encoding="utf-8" ?>
<svg baseProfile="tiny" height="128" version="1.2" width="128" xmlns="http://www.w3.org/2000/svg" xmlns:ev="http://www.w3.org/2001/xml-events" xmlns:xlink="http://www.w3.org/1999/xlink"><defs /><polygon fill="red" points="22.0,69.5 21.0,69.5 20.0,69.5 19.0,69.5 18.0,69.5 17.5,69.0 17.0,68.5 16.5,68.0 16.0,67.5 15.0,67.5 14.5,67.0 14.0,66.5 13.5,66.0 13.0,65.5 12.5,65.0 12.0,64.5 11.0,64.5 10.5,64.0 10.0,63.5 9.0,63.5 8.5,63.0 8.0,62.5 7.5,62.0 7.0,61.5 6.5,61.0 6.0,60.5 5.0,60.5 4.5,60.0 4.0,59.5 3.5,59.0 3.5,58.0 3.5,57.0 4.0,56.5 5.0,56.5 5.5,56.0 6.0,55.5 7.0,55.5 7.5,55.0 8.0,54.5 8.5,54.0 9.0,53.5 10.0,53.5 10.5,53.0 11.0,52.5 12.0,52.5 12.5,52.0 13.0,51.5 13.5,51.0 14.0,50.5 15.0,50.5 15.5,50.0 16.0,49.5 17.0,49.5 17.5,49.0 18.0,48.5 19.0,48.5 19.5,48.0 20.0,47.5 20.5,47.0 21.0,46.5 22.0,46.5 22.5,46.0 23.0,45.5 24.0,45.5 24.5,45.0 25.0,44.5 26.0,44.5 26.5,44.0 27.0,43.5 27.5,43.0 28.0,42.5 29.0,42.5 29.5,42.0 30.0,41.5 31.0,41.5 31.5,41.0 32.0,40.5 33.0,40.5 33.5,40.0 34.0,39.5 34.5,39.0 35.0,38.5 36.0,38.5 36.5,38.0 37.0,37.5 38.0,37.5 38.5,37.0 39.0,36.5 39.5,36.0 40.0,35.5 41.0,35.5 41.5,35.0 42.0,34.5 43.0,34.5 43.5,34.0 44.0,33.5 45.0,33.5 45.5,33.0 46.0,32.5 46.5,32.0 47.0,31.5 48.0,31.5 48.5,31.0 49.0,30.5 50.0,30.5 50.5,30.0 51.0,29.5 52.0,29.5 52.5,29.0 53.0,28.5 53.5,28.0 54.0,27.5 55.0,27.5 55.5,27.0 56.0,26.5 57.0,26.5 57.5,26.0 58.0,25.5 58.5,25.0 59.0,24.5 60.0,24.5 61.0,24.5 62.0,24.5 63.0,24.5 64.0,24.5 65.0,24.5 66.0,24.5 66.5,25.0 67.0,25.5 68.0,25.5 68.5,26.0 69.0,26.5 69.5,27.0 70.0,27.5 71.0,27.5 71.5,28.0 72.0,28.5 73.0,28.5 73.5,29.0 74.0,29.5 75.0,29.5 75.5,30.0 76.0,30.5 77.0,30.5 77.5,31.0 78.0,31.5 78.5,32.0 79.0,32.5 80.0,32.5 80.5,33.0 81.0,33.5 82.0,33.5 82.5,34.0 83.0,34.5 84.0,34.5 84.5,35.0 85.0,35.5 86.0,35.5 86.5,36.0 87.0,36.5 87.5,37.0 88.0,37.5 89.0,37.5 89.5,38.0 90.0,38.5 91.0,38.5 91.5,39.0 92.0,39.5 93.0,39.5 93.5,40.0 94.0,40.5 95.0,40.5 95.5,41.0 96.0,41.5 97.0,41.5 97.5,42.0 98.0,42.5 98.5,43.0 98.0,43.5 97.5,44.0 97.5,45.0 97.5,46.0 97.5,47.0 97.5,48.0 97.5,49.0 97.5,50.0 97.5,51.0 97.5,52.0 97.5,53.0 97.5,54.0 97.5,55.0 97.0,55.5 96.0,55.5 95.5,56.0 95.0,56.5 94.0,56.5 93.5,57.0 93.0,57.5 92.0,57.5 91.5,58.0 91.0,58.5 90.5,59.0 90.0,59.5 89.0,59.5 88.5,60.0 88.0,60.5 87.0,60.5 86.5,61.0 86.0,61.5 85.0,61.5 84.5,62.0 84.0,62.5 83.0,62.5 82.5,63.0 82.0,63.5 81.5,64.0 81.0,64.5 80.0,64.5 79.5,65.0 79.0,65.5 78.5,65.0 78.5,64.0 78.5,63.0 78.5,62.0 78.5,61.0 78.5,60.0 78.5,59.0 78.5,58.0 78.5,57.0 78.5,56.0 78.5,55.0 78.5,54.0 78.0,53.5 77.5,53.0 77.5,52.0 77.0,51.5 76.5,51.0 76.0,50.5 75.5,50.0 75.0,49.5 74.5,49.0 74.0,48.5 73.5,48.0 73.0,47.5 72.5,47.0 72.0,46.5 71.5,46.0 71.5,45.0 71.0,44.5 70.5,44.0 70.0,43.5 69.0,43.5 68.5,44.0 68.0,44.5 67.0,44.5 66.5,45.0 66.0,45.5 65.0,45.5 64.5,46.0 64.0,46.5 63.0,46.5 62.5,47.0 62.0,47.5 61.0,47.5 60.5,48.0 60.0,48.5 59.5,49.0 59.0,49.5 58.0,49.5 57.5,50.0 57.0,50.5 56.0,50.5 55.5,51.0 55.0,51.5 54.0,51.5 53.5,52.0 53.0,52.5 52.0,52.5 51.5,53.0 51.0,53.5 50.5,54.0 50.0,54.5 49.0,54.5 48.5,55.0 48.0,55.5 47.0,55.5 46.5,56.0 46.0,56.5 45.0,56.5 44.5,57.0 44.0,57.5 43.0,57.5 42.5,58.0 42.0,58.5 41.5,59.0 41.0,59.5 40.0,59.5 39.5,60.0 39.0,60.5 38.0,60.5 37.5,61.0 37.0,61.5 36.0,61.5 35.5,62.0 35.0,62.5 34.0,62.5 33.5,63.0 33.0,63.5 32.0,63.5 31.5,64.0 31.0,64.5 30.0,64.5 29.5,65.0 29.0,65.5 28.0,65.5 27.5,66.0 27.0,66.5 26.0,66.5 25.5,67.0 25.0,67.5 24.0,67.5 23.5,68.0 23.0,68.5 22.5,69.0 22.0,69.5" /><polygon fill="red" points="66.0,104.5 65.0,104.5 64.0,104.5 63.0,104.5 62.0,104.5 61.5,104.0 61.0,103.5 60.0,103.5 59.5,103.0 59.0,102.5 58.5,102.0 58.0,101.5 57.0,101.5 56.5,101.0 56.0,100.5 55.0,100.5 54.5,100.0 54.0,99.5 53.5,99.0 53.0,98.5 52.0,98.5 51.5,98.0 51.0,97.5 50.0,97.5 49.5,97.0 49.0,96.5 48.0,96.5 47.5,96.0 47.0,95.5 46.5,95.0 46.0,94.5 45.0,94.5 44.5,94.0 44.0,93.5 43.0,93.5 42.5,93.0 42.0,92.5 41.0,92.5 40.5,92.0 40.0,91.5 39.5,91.0 39.0,90.5 38.0,90.5 37.5,90.0 37.0,89.5 36.0,89.5 35.5,89.0 35.0,88.5 34.0,88.5 33.5,88.0 33.0,87.5 32.5,87.0 32.0,86.5 31.5,86.0 31.0,85.5 30.0,85.5 29.5,85.0 29.0,84.5 28.0,84.5 27.5,84.0 27.0,83.5 26.5,83.0 26.5,82.0 27.0,81.5 27.5,81.0 27.5,80.0 27.5,79.0 27.5,78.0 27.5,77.0 27.5,76.0 27.5,75.0 27.5,74.0 27.5,73.0 27.5,72.0 28.0,71.5 28.5,71.0 29.0,70.5 30.0,70.5 30.5,70.0 31.0,69.5 32.0,69.5 32.5,69.0 33.0,68.5 33.5,68.0 34.0,67.5 35.0,67.5 35.5,67.0 36.0,66.5 36.5,66.0 37.0,65.5 38.0,65.5 38.5,65.0 39.0,64.5 40.0,64.5 40.5,64.0 41.0,63.5 41.5,63.0 42.0,62.5 43.0,62.5 43.5,62.0 44.0,61.5 44.5,61.0 45.0,60.5 46.0,60.5 46.5,61.0 46.5,62.0 46.5,63.0 46.5,64.0 46.5,65.0 46.5,66.0 46.5,67.0 46.5,68.0 46.5,69.0 46.5,70.0 46.5,71.0 46.5,72.0 46.5,73.0 47.0,73.5 47.5,74.0 48.0,74.5 48.5,75.0 49.0,75.5 49.5,76.0 50.0,76.5 50.5,77.0 50.5,78.0 51.0,78.5 51.5,79.0 52.0,79.5 53.0,79.5 54.0,79.5 54.5,79.0 55.0,78.5 56.0,78.5 56.5,78.0 57.0,77.5 58.0,77.5 59.0,77.5 59.5,77.0 60.0,76.5 61.0,76.5 61.5,76.0 62.0,75.5 63.0,75.5 63.5,75.0 64.0,74.5 65.0,74.5 66.0,74.5 66.5,74.0 67.0,73.5 68.0,73.5 68.5,73.0 69.0,72.5 70.0,72.5 71.0,72.5 71.5,72.0 72.0,71.5 73.0,71.5 73.5,71.0 74.0,70.5 75.0,70.5 76.0,70.5 76.5,70.0 77.0,69.5 78.0,69.5 78.5,69.0 79.0,68.5 80.0,68.5 81.0,68.5 81.5,68.0 82.0,67.5 83.0,67.5 83.5,67.0 84.0,66.5 85.0,66.5 86.0,66.5 86.5,66.0 87.0,65.5 88.0,65.5 88.5,65.0 89.0,64.5 90.0,64.5 91.0,64.5 91.5,64.0 92.0,63.5 93.0,63.5 94.0,63.5 94.5,63.0 95.0,62.5 96.0,62.5 96.5,62.0 97.0,61.5 98.0,61.5 98.5,61.0 99.0,60.5 100.0,60.5 101.0,60.5 101.5,60.0 102.0,59.5 103.0,59.5 103.5,59.0 104.0,58.5 105.0,58.5 106.0,58.5 106.5,59.0 107.0,59.5 107.5,60.0 108.0,60.5 109.0,60.5 109.5,61.0 110.0,61.5 111.0,61.5 111.5,62.0 112.0,62.5 113.0,62.5 113.5,63.0 114.0,63.5 115.0,63.5 115.5,64.0 116.0,64.5 116.5,65.0 117.0,65.5 118.0,65.5 118.5,66.0 119.0,66.5 120.0,66.5 120.5,67.0 121.0,67.5 121.5,68.0 122.0,68.5 122.5,69.0 122.0,69.5 121.5,70.0 121.0,70.5 120.0,70.5 119.5,71.0 119.0,71.5 118.5,72.0 118.0,72.5 117.0,72.5 116.5,73.0 116.0,73.5 115.0,73.5 114.5,74.0 114.0,74.5 113.5,75.0 113.0,75.5 112.0,75.5 111.5,76.0 111.0,76.5 110.0,76.5 109.5,77.0 109.0,77.5 108.5,78.0 108.0,78.5 107.0,78.5 106.5,79.0 106.0,79.5 105.0,79.5 104.5,80.0 104.0,80.5 103.5,81.0 103.0,81.5 102.0,81.5 101.5,82.0 101.0,82.5 100.5,83.0 100.0,83.5 99.0,83.5 98.5,84.0 98.0,84.5 97.0,84.5 96.5,85.0 96.0,85.5 95.5,86.0 95.0,86.5 94.0,86.5 93.5,87.0 93.0,87.5 92.5,88.0 92.0,88.5 91.0,88.5 90.5,89.0 90.0,89.5 89.0,89.5 88.5,90.0 88.0,90.5 87.5,91.0 87.0,91.5 86.0,91.5 85.5,92.0 85.0,92.5 84.0,92.5 83.5,93.0 83.0,93.5 82.5,94.0 82.0,94.5 81.0,94.5 80.5,95.0 80.0,95.5 79.5,96.0 79.0,96.5 78.0,96.5 77.5,97.0 77.0,97.5 76.0,97.5 75.5,98.0 75.0,98.5 74.5,99.0 74.0,99.5 73.0,99.5 72.5,100.0 72.0,100.5 71.0,100.5 70.5,101.0 70.0,101.5 69.5,102.0 69.0,102.5 68.0,102.5 67.5,103.0 67.0,103.5 66.5,104.0 66.0,104.5" /></svg>